<svg xmlns="http://www.w3.org/2000/svg" viewBox="0 0 1200 750" role="img" aria-labelledby="t d">
<title id="t">Ageing and disease trajectories</title><desc id="d">Longitudinal biomarker trajectories from molecular clocks to disease progression.</desc>
<defs><linearGradient id="bg" x2="1" y2="1"><stop stop-color="#f8fbfa"/><stop offset="1" stop-color="#eef5f3"/></linearGradient><filter id="s"><feDropShadow dx="0" dy="8" stdDeviation="10" flood-opacity=".08"/></filter></defs>
<rect width="1200" height="750" rx="32" fill="url(#bg)"/>
<text x="64" y="82" font-family="Arial" font-size="30" font-weight="700" fill="#10252b">AGEING &amp; DISEASE TRAJECTORIES</text><text x="64" y="118" font-family="Arial" font-size="17" fill="#607177">dynamic biomarkers · biological age · longitudinal risk</text>
<g transform="translate(70 175)" filter="url(#s)"><rect width="1060" height="440" rx="28" fill="#fff" stroke="#dce5e2"/>
<g transform="translate(55 60)">
<text x="0" y="0" font-family="Arial" font-size="17" font-weight="700" fill="#0b7468">Molecular state</text>
<g fill="#dce5e2"><rect x="0" y="28" width="22" height="18" rx="4"/><rect x="34" y="28" width="22" height="18" rx="4"/><rect x="68" y="28" width="22" height="18" rx="4"/><rect x="102" y="28" width="22" height="18" rx="4"/><rect x="136" y="28" width="22" height="18" rx="4"/><rect x="170" y="28" width="22" height="18" rx="4"/><rect x="204" y="28" width="22" height="18" rx="4"/><rect x="238" y="28" width="22" height="18" rx="4"/><rect x="272" y="28" width="22" height="18" rx="4"/><rect x="306" y="28" width="22" height="18" rx="4"/><rect x="340" y="28" width="22" height="18" rx="4"/><rect x="374" y="28" width="22" height="18" rx="4"/><rect x="408" y="28" width="22" height="18" rx="4"/><rect x="442" y="28" width="22" height="18" rx="4"/><rect x="476" y="28" width="22" height="18" rx="4"/><rect x="510" y="28" width="22" height="18" rx="4"/><rect x="0" y="56" width="22" height="18" rx="4"/><rect x="34" y="56" width="22" height="18" rx="4"/><rect x="68" y="56" width="22" height="18" rx="4"/><rect x="102" y="56" width="22" height="18" rx="4"/><rect x="136" y="56" width="22" height="18" rx="4"/><rect x="170" y="56" width="22" height="18" rx="4"/><rect x="204" y="56" width="22" height="18" rx="4"/><rect x="238" y="56" width="22" height="18" rx="4"/><rect x="272" y="56" width="22" height="18" rx="4"/><rect x="306" y="56" width="22" height="18" rx="4"/><rect x="340" y="56" width="22" height="18" rx="4"/><rect x="374" y="56" width="22" height="18" rx="4"/><rect x="408" y="56" width="22" height="18" rx="4"/><rect x="442" y="56" width="22" height="18" rx="4"/><rect x="476" y="56" width="22" height="18" rx="4"/><rect x="510" y="56" width="22" height="18" rx="4"/><rect x="0" y="84" width="22" height="18" rx="4"/><rect x="34" y="84" width="22" height="18" rx="4"/><rect x="68" y="84" width="22" height="18" rx="4"/><rect x="102" y="84" width="22" height="18" rx="4"/><rect x="136" y="84" width="22" height="18" rx="4"/><rect x="170" y="84" width="22" height="18" rx="4"/><rect x="204" y="84" width="22" height="18" rx="4"/><rect x="238" y="84" width="22" height="18" rx="4"/><rect x="272" y="84" width="22" height="18" rx="4"/><rect x="306" y="84" width="22" height="18" rx="4"/><rect x="340" y="84" width="22" height="18" rx="4"/><rect x="374" y="84" width="22" height="18" rx="4"/><rect x="408" y="84" width="22" height="18" rx="4"/><rect x="442" y="84" width="22" height="18" rx="4"/><rect x="476" y="84" width="22" height="18" rx="4"/><rect x="510" y="84" width="22" height="18" rx="4"/><rect x="0" y="112" width="22" height="18" rx="4"/><rect x="34" y="112" width="22" height="18" rx="4"/><rect x="68" y="112" width="22" height="18" rx="4"/><rect x="102" y="112" width="22" height="18" rx="4"/><rect x="136" y="112" width="22" height="18" rx="4"/><rect x="170" y="112" width="22" height="18" rx="4"/><rect x="204" y="112" width="22" height="18" rx="4"/><rect x="238" y="112" width="22" height="18" rx="4"/><rect x="272" y="112" width="22" height="18" rx="4"/><rect x="306" y="112" width="22" height="18" rx="4"/><rect x="340" y="112" width="22" height="18" rx="4"/><rect x="374" y="112" width="22" height="18" rx="4"/><rect x="408" y="112" width="22" height="18" rx="4"/><rect x="442" y="112" width="22" height="18" rx="4"/><rect x="476" y="112" width="22" height="18" rx="4"/><rect x="510" y="112" width="22" height="18" rx="4"/><rect x="0" y="140" width="22" height="18" rx="4"/><rect x="34" y="140" width="22" height="18" rx="4"/><rect x="68" y="140" width="22" height="18" rx="4"/><rect x="102" y="140" width="22" height="18" rx="4"/><rect x="136" y="140" width="22" height="18" rx="4"/><rect x="170" y="140" width="22" height="18" rx="4"/><rect x="204" y="140" width="22" height="18" rx="4"/><rect x="238" y="140" width="22" height="18" rx="4"/><rect x="272" y="140" width="22" height="18" rx="4"/><rect x="306" y="140" width="22" height="18" rx="4"/><rect x="340" y="140" width="22" height="18" rx="4"/><rect x="374" y="140" width="22" height="18" rx="4"/><rect x="408" y="140" width="22" height="18" rx="4"/><rect x="442" y="140" width="22" height="18" rx="4"/><rect x="476" y="140" width="22" height="18" rx="4"/><rect x="510" y="140" width="22" height="18" rx="4"/><rect x="0" y="168" width="22" height="18" rx="4"/><rect x="34" y="168" width="22" height="18" rx="4"/><rect x="68" y="168" width="22" height="18" rx="4"/><rect x="102" y="168" width="22" height="18" rx="4"/><rect x="136" y="168" width="22" height="18" rx="4"/><rect x="170" y="168" width="22" height="18" rx="4"/><rect x="204" y="168" width="22" height="18" rx="4"/><rect x="238" y="168" width="22" height="18" rx="4"/><rect x="272" y="168" width="22" height="18" rx="4"/><rect x="306" y="168" width="22" height="18" rx="4"/><rect x="340" y="168" width="22" height="18" rx="4"/><rect x="374" y="168" width="22" height="18" rx="4"/><rect x="408" y="168" width="22" height="18" rx="4"/><rect x="442" y="168" width="22" height="18" rx="4"/><rect x="476" y="168" width="22" height="18" rx="4"/><rect x="510" y="168" width="22" height="18" rx="4"/><rect x="0" y="196" width="22" height="18" rx="4"/><rect x="34" y="196" width="22" height="18" rx="4"/><rect x="68" y="196" width="22" height="18" rx="4"/><rect x="102" y="196" width="22" height="18" rx="4"/><rect x="136" y="196" width="22" height="18" rx="4"/><rect x="170" y="196" width="22" height="18" rx="4"/><rect x="204" y="196" width="22" height="18" rx="4"/><rect x="238" y="196" width="22" height="18" rx="4"/><rect x="272" y="196" width="22" height="18" rx="4"/><rect x="306" y="196" width="22" height="18" rx="4"/><rect x="340" y="196" width="22" height="18" rx="4"/><rect x="374" y="196" width="22" height="18" rx="4"/><rect x="408" y="196" width="22" height="18" rx="4"/><rect x="442" y="196" width="22" height="18" rx="4"/><rect x="476" y="196" width="22" height="18" rx="4"/><rect x="510" y="196" width="22" height="18" rx="4"/><rect x="0" y="224" width="22" height="18" rx="4"/><rect x="34" y="224" width="22" height="18" rx="4"/><rect x="68" y="224" width="22" height="18" rx="4"/><rect x="102" y="224" width="22" height="18" rx="4"/><rect x="136" y="224" width="22" height="18" rx="4"/><rect x="170" y="224" width="22" height="18" rx="4"/><rect x="204" y="224" width="22" height="18" rx="4"/><rect x="238" y="224" width="22" height="18" rx="4"/><rect x="272" y="224" width="22" height="18" rx="4"/><rect x="306" y="224" width="22" height="18" rx="4"/><rect x="340" y="224" width="22" height="18" rx="4"/><rect x="374" y="224" width="22" height="18" rx="4"/><rect x="408" y="224" width="22" height="18" rx="4"/><rect x="442" y="224" width="22" height="18" rx="4"/><rect x="476" y="224" width="22" height="18" rx="4"/><rect x="510" y="224" width="22" height="18" rx="4"/></g>
<g fill="#0b7468"><rect x="34" y="56" width="22" height="18" rx="4"/><rect x="136" y="112" width="22" height="18" rx="4"/><rect x="272" y="168" width="22" height="18" rx="4"/><rect x="408" y="84" width="22" height="18" rx="4"/></g>
<g fill="#d8b56e"><rect x="68" y="84" width="22" height="18" rx="4"/><rect x="204" y="140" width="22" height="18" rx="4"/><rect x="340" y="196" width="22" height="18" rx="4"/><rect x="476" y="112" width="22" height="18" rx="4"/></g>
</g>
<g transform="translate(620 60)">
<text x="0" y="0" font-family="Arial" font-size="17" font-weight="700" fill="#0b7468">Trajectory model</text>
<path d="M10 260 C90 245 120 180 180 174 S285 120 380 55" fill="none" stroke="#0b7468" stroke-width="10" stroke-linecap="round"/>
<path d="M10 280 C100 276 150 248 225 235 S320 210 390 165" fill="none" stroke="#d8b56e" stroke-width="8" stroke-linecap="round"/>
<g fill="#0b7468"><circle cx="10" cy="260" r="10"/><circle cx="180" cy="174" r="10"/><circle cx="380" cy="55" r="10"/></g>
<g fill="#d8b56e"><circle cx="10" cy="280" r="9"/><circle cx="225" cy="235" r="9"/><circle cx="390" cy="165" r="9"/></g>
<path d="M0 315h410" stroke="#bfcfcb" stroke-width="3"/><path d="M0 315v-285" stroke="#bfcfcb" stroke-width="3"/>
<text x="325" y="345" font-family="Arial" font-size="14" fill="#607177">time / disease stage</text><text x="-2" y="370" font-family="Arial" font-size="13" fill="#607177">clock · cfDNA · enhancer state</text>
</g>
<g transform="translate(55 335)" font-family="Arial">
<rect width="500" height="60" rx="15" fill="#eef7f5"/><text x="22" y="27" font-size="15" font-weight="700" fill="#10252b">Histone modification clocks</text><text x="22" y="48" font-size="13" fill="#607177">cross-species age prediction · intervention response</text>
</g>
</g>
</svg>