<svg xmlns="http://www.w3.org/2000/svg" viewBox="0 0 720 450" role="img" aria-label="Stylised prostate-cancer epigenetic heatmap illustration">
<rect width="720" height="450" rx="28" fill="#f6f8f7"/>
<g transform="translate(70 62)">
<rect x="0" y="0" width="330" height="300" rx="18" fill="#fff" stroke="#dce5e2" stroke-width="3"/>
<g transform="translate(22 22)">
<rect x="0" y="0" width="22" height="24" rx="3" fill="#d8b56e"/><rect x="27" y="0" width="22" height="24" rx="3" fill="#dfe9e7"/><rect x="54" y="0" width="22" height="24" rx="3" fill="#dfe9e7"/><rect x="81" y="0" width="22" height="24" rx="3" fill="#89d4c5"/><rect x="108" y="0" width="22" height="24" rx="3" fill="#123a46"/><rect x="135" y="0" width="22" height="24" rx="3" fill="#d8b56e"/><rect x="162" y="0" width="22" height="24" rx="3" fill="#89d4c5"/><rect x="189" y="0" width="22" height="24" rx="3" fill="#dfe9e7"/><rect x="216" y="0" width="22" height="24" rx="3" fill="#123a46"/><rect x="243" y="0" width="22" height="24" rx="3" fill="#89d4c5"/><rect x="0" y="30" width="22" height="24" rx="3" fill="#dfe9e7"/><rect x="27" y="30" width="22" height="24" rx="3" fill="#dfe9e7"/><rect x="54" y="30" width="22" height="24" rx="3" fill="#123a46"/><rect x="81" y="30" width="22" height="24" rx="3" fill="#dfe9e7"/><rect x="108" y="30" width="22" height="24" rx="3" fill="#d8b56e"/><rect x="135" y="30" width="22" height="24" rx="3" fill="#89d4c5"/><rect x="162" y="30" width="22" height="24" rx="3" fill="#123a46"/><rect x="189" y="30" width="22" height="24" rx="3" fill="#dfe9e7"/><rect x="216" y="30" width="22" height="24" rx="3" fill="#89d4c5"/><rect x="243" y="30" width="22" height="24" rx="3" fill="#d8b56e"/><rect x="0" y="60" width="22" height="24" rx="3" fill="#123a46"/><rect x="27" y="60" width="22" height="24" rx="3" fill="#89d4c5"/><rect x="54" y="60" width="22" height="24" rx="3" fill="#dfe9e7"/><rect x="81" y="60" width="22" height="24" rx="3" fill="#d8b56e"/><rect x="108" y="60" width="22" height="24" rx="3" fill="#123a46"/><rect x="135" y="60" width="22" height="24" rx="3" fill="#dfe9e7"/><rect x="162" y="60" width="22" height="24" rx="3" fill="#dfe9e7"/><rect x="189" y="60" width="22" height="24" rx="3" fill="#89d4c5"/><rect x="216" y="60" width="22" height="24" rx="3" fill="#d8b56e"/><rect x="243" y="60" width="22" height="24" rx="3" fill="#dfe9e7"/><rect x="0" y="90" width="22" height="24" rx="3" fill="#89d4c5"/><rect x="27" y="90" width="22" height="24" rx="3" fill="#dfe9e7"/><rect x="54" y="90" width="22" height="24" rx="3" fill="#d8b56e"/><rect x="81" y="90" width="22" height="24" rx="3" fill="#89d4c5"/><rect x="108" y="90" width="22" height="24" rx="3" fill="#dfe9e7"/><rect x="135" y="90" width="22" height="24" rx="3" fill="#dfe9e7"/><rect x="162" y="90" width="22" height="24" rx="3" fill="#123a46"/><rect x="189" y="90" width="22" height="24" rx="3" fill="#d8b56e"/><rect x="216" y="90" width="22" height="24" rx="3" fill="#dfe9e7"/><rect x="243" y="90" width="22" height="24" rx="3" fill="#89d4c5"/><rect x="0" y="120" width="22" height="24" rx="3" fill="#123a46"/><rect x="27" y="120" width="22" height="24" rx="3" fill="#d8b56e"/><rect x="54" y="120" width="22" height="24" rx="3" fill="#89d4c5"/><rect x="81" y="120" width="22" height="24" rx="3" fill="#dfe9e7"/><rect x="108" y="120" width="22" height="24" rx="3" fill="#123a46"/><rect x="135" y="120" width="22" height="24" rx="3" fill="#89d4c5"/><rect x="162" y="120" width="22" height="24" rx="3" fill="#d8b56e"/><rect x="189" y="120" width="22" height="24" rx="3" fill="#dfe9e7"/><rect x="216" y="120" width="22" height="24" rx="3" fill="#123a46"/><rect x="243" y="120" width="22" height="24" rx="3" fill="#dfe9e7"/><rect x="0" y="150" width="22" height="24" rx="3" fill="#d8b56e"/><rect x="27" y="150" width="22" height="24" rx="3" fill="#89d4c5"/><rect x="54" y="150" width="22" height="24" rx="3" fill="#123a46"/><rect x="81" y="150" width="22" height="24" rx="3" fill="#dfe9e7"/><rect x="108" y="150" width="22" height="24" rx="3" fill="#89d4c5"/><rect x="135" y="150" width="22" height="24" rx="3" fill="#d8b56e"/><rect x="162" y="150" width="22" height="24" rx="3" fill="#123a46"/><rect x="189" y="150" width="22" height="24" rx="3" fill="#89d4c5"/><rect x="216" y="150" width="22" height="24" rx="3" fill="#dfe9e7"/><rect x="243" y="150" width="22" height="24" rx="3" fill="#dfe9e7"/><rect x="0" y="180" width="22" height="24" rx="3" fill="#123a46"/><rect x="27" y="180" width="22" height="24" rx="3" fill="#dfe9e7"/><rect x="54" y="180" width="22" height="24" rx="3" fill="#dfe9e7"/><rect x="81" y="180" width="22" height="24" rx="3" fill="#89d4c5"/><rect x="108" y="180" width="22" height="24" rx="3" fill="#d8b56e"/><rect x="135" y="180" width="22" height="24" rx="3" fill="#dfe9e7"/><rect x="162" y="180" width="22" height="24" rx="3" fill="#89d4c5"/><rect x="189" y="180" width="22" height="24" rx="3" fill="#dfe9e7"/><rect x="216" y="180" width="22" height="24" rx="3" fill="#123a46"/><rect x="243" y="180" width="22" height="24" rx="3" fill="#d8b56e"/><rect x="0" y="210" width="22" height="24" rx="3" fill="#dfe9e7"/><rect x="27" y="210" width="22" height="24" rx="3" fill="#dfe9e7"/><rect x="54" y="210" width="22" height="24" rx="3" fill="#123a46"/><rect x="81" y="210" width="22" height="24" rx="3" fill="#d8b56e"/><rect x="108" y="210" width="22" height="24" rx="3" fill="#dfe9e7"/><rect x="135" y="210" width="22" height="24" rx="3" fill="#89d4c5"/><rect x="162" y="210" width="22" height="24" rx="3" fill="#123a46"/><rect x="189" y="210" width="22" height="24" rx="3" fill="#dfe9e7"/><rect x="216" y="210" width="22" height="24" rx="3" fill="#d8b56e"/><rect x="243" y="210" width="22" height="24" rx="3" fill="#dfe9e7"/>
</g>
<g transform="translate(390 40)">
<circle cx="80" cy="70" r="48" fill="#123a46"/><circle cx="80" cy="70" r="24" fill="#89d4c5"/>
<circle cx="210" cy="70" r="48" fill="#0b7468"/><circle cx="210" cy="70" r="24" fill="#d8b56e"/>
<path d="M128 70h34" stroke="#607177" stroke-width="6"/><path d="M162 70l-13-10v20z" fill="#607177"/>
<text x="80" y="142" text-anchor="middle" font-family="Arial,sans-serif" font-size="22" font-weight="700" fill="#123a46">BAZ2A</text>
<text x="210" y="142" text-anchor="middle" font-family="Arial,sans-serif" font-size="22" font-weight="700" fill="#0b7468">EZH2</text>
<path d="M22 220c52-35 86-18 122 12s80 36 126-10" fill="none" stroke="#0b7468" stroke-width="6"/>
<path d="M22 265c60 16 116 3 164-25s76-26 104-6" fill="none" stroke="#d8b56e" stroke-width="6"/>
</g>
</g></svg>